<?xml version="1.0" encoding="UTF-8" standalone="no"?>
<svg
   version="1.1"
   viewBox="0.0 0.0 1024.0 1024.0"
   fill="none"
   stroke="none"
   stroke-linecap="square"
   stroke-miterlimit="10"
   id="svg20"
   sodipodi:docname="windowslogo.svg"
   inkscape:version="1.4.2 (f4327f4, 2025-05-13)"
   xmlns:inkscape="http://www.inkscape.org/namespaces/inkscape"
   xmlns:sodipodi="http://sodipodi.sourceforge.net/DTD/sodipodi-0.dtd"
   xmlns="http://www.w3.org/2000/svg"
   xmlns:svg="http://www.w3.org/2000/svg">
  <defs
     id="defs21">
    <defs
       id="defs3">
      <linearGradient
         id="g3be1deafc8d_0_22.1"
         gradientUnits="userSpaceOnUse"
         gradientTransform="scale(26.197864)"
         spreadMethod="pad"
         x1="6.9544158996900345"
         y1="22.579718483542116"
         x2="25.47906996392982"
         y2="41.10443907786963">
        <stop
           offset="0.0"
           stop-color="#81c7ff"
           id="stop2" />
        <stop
           offset="1.0"
           stop-color="#5eaae8"
           id="stop3" />
      </linearGradient>
    </defs>
    <defs
       id="defs5">
      <linearGradient
         id="g3be1deafc8d_0_22.2"
         gradientUnits="userSpaceOnUse"
         gradientTransform="scale(16.866187)"
         spreadMethod="pad"
         x1="27.650082117514415"
         y1="24.023008067058782"
         x2="39.5762555471514"
         y2="35.94922526408488">
        <stop
           offset="0.0"
           stop-color="#ffffff"
           id="stop4" />
        <stop
           offset="1.0"
           stop-color="#d0e8ff"
           id="stop5" />
      </linearGradient>
    </defs>
    <defs
       id="defs7">
      <linearGradient
         id="g3be1deafc8d_0_22.3"
         gradientUnits="userSpaceOnUse"
         gradientTransform="scale(11.223423)"
         spreadMethod="pad"
         x1="61.75140716531012"
         y1="47.411548793666384"
         x2="69.68755115749367"
         y2="55.34772201792874">
        <stop
           offset="0.0"
           stop-color="#d2e9ff"
           id="stop6" />
        <stop
           offset="1.0"
           stop-color="#83c3fd"
           id="stop7" />
      </linearGradient>
    </defs>
    <defs
       id="defs11">
      <linearGradient
         id="g3be1deafc8d_0_22.4"
         gradientUnits="userSpaceOnUse"
         gradientTransform="scale(11.223423)"
         spreadMethod="pad"
         x1="51.53856291019281"
         y1="57.518390223048975"
         x2="59.47470690237636"
         y2="65.45456344731133">
        <stop
           offset="0.0"
           stop-color="#d2e9ff"
           id="stop10" />
        <stop
           offset="1.0"
           stop-color="#83c3fd"
           id="stop11" />
      </linearGradient>
    </defs>
    <defs
       id="defs14">
      <linearGradient
         id="g3be1deafc8d_0_22.5"
         gradientUnits="userSpaceOnUse"
         gradientTransform="scale(11.223423)"
         spreadMethod="pad"
         x1="41.325725963095195"
         y1="67.82413037057076"
         x2="49.261869955278755"
         y2="75.76030359483312">
        <stop
           offset="0.0"
           stop-color="#d2e9ff"
           id="stop13" />
        <stop
           offset="1.0"
           stop-color="#83c3fd"
           id="stop14" />
      </linearGradient>
    </defs>
    <defs
       id="defs16">
      <linearGradient
         id="g3be1deafc8d_0_22.6"
         gradientUnits="userSpaceOnUse"
         gradientTransform="matrix(9.0720467,-14.07247,14.07247,9.0720467,0,0)"
         spreadMethod="pad"
         x1="-32.1269450286519"
         y1="32.818925297672635"
         x2="-22.176224524421894"
         y2="42.7696825425271">
        <stop
           offset="0.0"
           stop-color="#d0e8ff"
           id="stop15" />
        <stop
           offset="1.0"
           stop-color="#83c3fd"
           id="stop16" />
      </linearGradient>
    </defs>
    <defs
       id="defs18">
      <linearGradient
         id="g3be1deafc8d_0_22.7"
         gradientUnits="userSpaceOnUse"
         gradientTransform="matrix(21.430122,0,0,21.430122,-4.4767031,-3.764033)"
         spreadMethod="pad"
         x1="4.802074217687176"
         y1="16.644164794361018"
         x2="19.795520952939427"
         y2="31.63766665131707">
        <stop
           offset="0.0"
           stop-color="#ffffff"
           id="stop17" />
        <stop
           offset="1.0"
           stop-color="#d0e8ff"
           id="stop18" />
      </linearGradient>
    </defs>
    <defs
       id="defs20">
      <linearGradient
         id="g3be1deafc8d_0_22.8"
         gradientUnits="userSpaceOnUse"
         gradientTransform="scale(24.223922)"
         spreadMethod="pad"
         x1="0.19903995594890694"
         y1="14.569524216098504"
         x2="17.327908974360003"
         y2="31.69845443291668">
        <stop
           offset="0.0"
           stop-color="#81c7ff"
           id="stop19" />
        <stop
           offset="1.0"
           stop-color="#5eaae8"
           id="stop20" />
      </linearGradient>
    </defs>
  </defs>
  <sodipodi:namedview
     id="namedview20"
     pagecolor="#505050"
     bordercolor="#ffffff"
     borderopacity="1"
     inkscape:showpageshadow="0"
     inkscape:pageopacity="0"
     inkscape:pagecheckerboard="1"
     inkscape:deskcolor="#505050"
     inkscape:zoom="1.7695312"
     inkscape:cx="512.00001"
     inkscape:cy="555.51436"
     inkscape:window-width="3840"
     inkscape:window-height="2054"
     inkscape:window-x="2869"
     inkscape:window-y="-11"
     inkscape:window-maximized="1"
     inkscape:current-layer="svg20" />
  <path
     fill="url(#g3be1deafc8d_0_22.1)"
     d="m 469.18295,347.54398 v 0 c 0,-23.7453 19.24939,-42.99466 42.99466,-42.99466 h 310.64056 c 11.40289,0 22.33881,4.52978 30.40185,12.59283 8.06305,8.06308 12.59284,18.99894 12.59284,30.40183 v 487.9949 c 0,23.7453 -19.24939,42.99469 -42.99469,42.99469 H 512.17761 c -23.74527,0 -42.99466,-19.24939 -42.99466,-42.99469 z"
     fill-rule="evenodd"
     id="path3"
     style="fill:url(#g3be1deafc8d_0_22.1)" />
  <path
     fill="url(#g3be1deafc8d_0_22.2)"
     d="m 508.54047,372.1343 v 0 c 0,-5.05151 4.09503,-9.14658 9.14654,-9.14658 h 299.6281 c 2.42585,0 4.75232,0.96366 6.4676,2.67896 1.71533,1.71533 2.67901,4.04181 2.67901,6.46762 v 66.08481 c 0,5.05151 -4.09509,9.14658 -9.1466,9.14658 h -299.6281 c -5.05152,0 -9.14655,-4.09507 -9.14655,-9.14658 z"
     fill-rule="evenodd"
     id="path5"
     style="fill:url(#g3be1deafc8d_0_22.2)" />
  <path
     fill="url(#g3be1deafc8d_0_22.3)"
     d="m 737.78656,497.00992 v 0 c 0,-5.30984 4.30444,-9.61432 9.61432,-9.61432 h 69.46429 c 2.54987,0 4.9953,1.01294 6.79834,2.81598 1.80304,1.80304 2.81598,4.24847 2.81598,6.79834 v 70.22018 c 0,5.30988 -4.3045,9.61432 -9.61432,9.61432 h -69.46429 c -5.30988,0 -9.61432,-4.30444 -9.61432,-9.61432 z"
     fill-rule="evenodd"
     id="path7"
     style="fill:url(#g3be1deafc8d_0_22.3)" />
  <path
     fill="#d2e9ff"
     d="m 623.1635,494.77844 v 0 c 0,-5.30981 4.3045,-9.61429 9.61432,-9.61429 h 69.46429 c 2.54987,0 4.9953,1.01291 6.79834,2.81595 1.80304,1.80304 2.81598,4.24847 2.81598,6.79834 v 70.22022 c 0,5.30981 -4.30444,9.61431 -9.61432,9.61431 h -69.46429 c -5.30982,0 -9.61432,-4.3045 -9.61432,-9.61431 z"
     fill-rule="evenodd"
     id="path8" />
  <path
     fill="#d2e9ff"
     d="m 508.54053,494.7773 v 0 c 0,-5.30984 4.30444,-9.61432 9.61432,-9.61432 h 69.46429 c 2.54987,0 4.9953,1.01294 6.79834,2.81598 1.80304,1.80304 2.81598,4.24847 2.81598,6.79834 v 70.22018 c 0,5.30988 -4.3045,9.61432 -9.61432,9.61432 h -69.46429 c -5.30988,0 -9.61432,-4.30444 -9.61432,-9.61432 z"
     fill-rule="evenodd"
     id="path9" />
  <path
     fill="#83c3fd"
     d="m 737.78656,612.67474 v 0 c 0,-5.30981 4.30444,-9.61432 9.61432,-9.61432 h 69.46429 c 2.54987,0 4.9953,1.01294 6.79834,2.81598 1.80304,1.80304 2.81598,4.24847 2.81598,6.79834 v 70.22021 c 0,5.30982 -4.3045,9.61432 -9.61432,9.61432 h -69.46429 c -5.30988,0 -9.61432,-4.3045 -9.61432,-9.61432 z"
     fill-rule="evenodd"
     id="path10" />
  <path
     fill="url(#g3be1deafc8d_0_22.4)"
     d="m 623.1635,610.4433 v 0 c 0,-5.30981 4.3045,-9.61432 9.61432,-9.61432 h 69.46429 c 2.54987,0 4.9953,1.01294 6.79834,2.81598 1.80304,1.80304 2.81598,4.24847 2.81598,6.79834 v 70.22021 c 0,5.30982 -4.30444,9.61432 -9.61432,9.61432 h -69.46429 c -5.30982,0 -9.61432,-4.3045 -9.61432,-9.61432 z"
     fill-rule="evenodd"
     id="path11"
     style="fill:url(#g3be1deafc8d_0_22.4)" />
  <path
     fill="#d2e9ff"
     d="m 508.54053,610.44214 v 0 c 0,-5.30981 4.30444,-9.61426 9.61432,-9.61426 h 69.46429 c 2.54987,0 4.9953,1.01288 6.79834,2.81592 1.80304,1.80304 2.81598,4.24847 2.81598,6.79834 v 70.22022 c 0,5.30981 -4.3045,9.61431 -9.61432,9.61431 h -69.46429 c -5.30988,0 -9.61432,-4.3045 -9.61432,-9.61431 z"
     fill-rule="evenodd"
     id="path12" />
  <path
     fill="#83c3fd"
     d="m 627.20123,728.42426 v 0 c 0,-5.3551 4.34113,-9.69623 9.69623,-9.69623 h 179.88306 c 2.57165,0 5.0379,1.02155 6.85632,2.83997 1.81842,1.81842 2.83997,4.28467 2.83997,6.85626 v 70.05633 c 0,5.35511 -4.34119,9.69623 -9.69629,9.69623 H 636.89746 c -5.3551,0 -9.69623,-4.34112 -9.69623,-9.69623 z"
     fill-rule="evenodd"
     id="path13" />
  <path
     fill="url(#g3be1deafc8d_0_22.5)"
     d="m 508.54053,726.109 v 0 c 0,-5.30988 4.30444,-9.61432 9.61432,-9.61432 h 69.46429 c 2.54987,0 4.9953,1.01294 6.79834,2.81598 1.80304,1.80304 2.81598,4.24847 2.81598,6.79834 v 70.22015 c 0,5.30988 -4.3045,9.61432 -9.61432,9.61432 h -69.46429 c -5.30988,0 -9.61432,-4.30444 -9.61432,-9.61432 z"
     fill-rule="evenodd"
     id="path14"
     style="fill:url(#g3be1deafc8d_0_22.5)" />
  <path
     fill="url(#g3be1deafc8d_0_22.6)"
     d="m 169.63133,700.7591 v 0 c -6.32024,-4.07336 -8.14107,-12.49866 -4.06694,-18.81842 L 287.09414,493.42493 c 1.95646,-3.03485 5.03849,-5.16834 8.56803,-5.93112 3.52957,-0.76279 7.21753,-0.0924 10.25262,1.86371 l 45.77384,29.501 c 6.32022,4.07337 8.14105,12.49866 4.06692,18.81836 L 234.2258,726.19269 c -4.07413,6.31971 -12.50041,8.14075 -18.82065,4.06739 z"
     fill-rule="evenodd"
     id="path16"
     style="fill:url(#g3be1deafc8d_0_22.6)" />
  <path
     fill="url(#g3be1deafc8d_0_22.7)"
     d="m 259.08834,352.923 v 0 c 0,-88.72782 71.92814,-160.65598 160.65599,-160.65598 v 0 c 42.60861,0 83.47211,16.9262 113.60096,47.05505 30.1288,30.12885 47.05503,70.99232 47.05503,113.60093 v 0 c 0,88.72785 -71.92814,160.65599 -160.65599,160.65599 v 0 c -88.72785,0 -160.65599,-71.92814 -160.65599,-160.65599 z"
     fill-rule="evenodd"
     id="path18"
     style="fill:url(#g3be1deafc8d_0_22.7);stroke-width:1.01067" />
  <path
     fill="url(#g3be1deafc8d_0_22.8)"
     d="m 212.28609,352.93176 v 0 c 0,-114.57951 92.88506,-207.46457 207.46458,-207.46457 v 0 c 55.02301,0 107.79242,21.8578 146.69958,60.76497 38.90717,38.90715 60.76495,91.67656 60.76495,146.6996 v 0 c 0,114.5795 -92.88501,207.46454 -207.46454,207.46454 v 0 c -114.57953,0 -207.46458,-92.88504 -207.46458,-207.46454 z m 47.30193,0 v 0 c 0,88.45538 71.70724,160.16266 160.16266,160.16266 88.45538,0 160.16266,-71.70727 160.16266,-160.16266 v 0 c 0,-88.45538 -71.70728,-160.16264 -160.16266,-160.16264 v 0 c -88.45542,0 -160.16266,71.70726 -160.16266,160.16264 z"
     fill-rule="evenodd"
     id="path20"
     style="fill:url(#g3be1deafc8d_0_22.8)" />
</svg>
